<svg width="100" height="23" viewBox="0 0 100 23" fill="none" xmlns="http://www.w3.org/2000/svg">
<path d="M99.4612 4.00592V18.4443H95.4263V4.00592H99.4612Z" fill="white"/>
<path d="M93.4871 4.00592V18.4443H89.4521V10.9577H89.3306C89.2658 11.3142 89.1766 11.6707 89.0632 12.0272C88.966 12.3837 88.8282 12.7646 88.65 13.1697L87.2888 16.3782H83.4969L82.1357 13.1697C81.9899 12.797 81.8602 12.4243 81.7468 12.0516C81.6334 11.6788 81.5361 11.3142 81.4551 10.9577H81.3336V18.4443H77.4688V4.00592H81.7711L84.5421 10.3501C84.7041 10.7066 84.8662 11.1117 85.0282 11.5654C85.2065 12.0029 85.3361 12.3756 85.4171 12.6835H85.5387C85.6197 12.3756 85.7412 12.0029 85.9033 11.5654C86.0815 11.1117 86.2517 10.7066 86.4137 10.3501L89.1847 4.00592H93.4871Z" fill="white"/>
<path d="M69.9604 4.00592C71.3216 4.00592 72.4645 4.21643 73.3882 4.63776C74.3116 5.04282 75.0081 5.62634 75.478 6.38776C75.948 7.14938 76.1831 8.06532 76.1831 9.13483C76.1831 10.2042 75.9397 11.1276 75.4536 11.9053C74.9837 12.667 74.2792 13.2512 73.3394 13.6563C72.4157 14.0614 71.2728 14.2637 69.9116 14.2637H68.6968V18.4444H64.6616V4.00592H69.9604ZM68.6968 10.9581H69.8872C70.4058 10.9581 70.8278 10.8852 71.1519 10.7393C71.4921 10.5935 71.7345 10.382 71.8804 10.1065C72.0423 9.83109 72.1235 9.50741 72.1235 9.13483C72.1235 8.74591 72.0424 8.42145 71.8804 8.16217C71.7345 7.88693 71.4919 7.67611 71.1519 7.53033C70.8278 7.38449 70.4058 7.31158 69.8872 7.31158H68.6968V10.9581Z" fill="white"/>
<path d="M62.7269 4.00592V18.4443H58.6919V4.00592H62.7269Z" fill="white"/>
<path d="M53.6793 17.9581C53.1608 18.2822 52.5207 18.5253 51.7591 18.6873C50.9975 18.8494 50.2034 18.9304 49.377 18.9304C47.7241 18.9304 46.2981 18.6063 45.099 17.9581C43.916 17.2937 43.0005 16.4025 42.3523 15.2844C41.7203 14.15 41.4043 12.878 41.4043 11.4682C41.4043 10.0259 41.7284 8.74576 42.3766 7.62764C43.041 6.50952 43.9403 5.62636 45.0747 4.97817C46.209 4.32998 47.4973 4.00589 48.9395 4.00589C49.9604 4.00589 50.8678 4.11122 51.6619 4.32188C52.4721 4.53254 53.1851 4.84853 53.8009 5.26986L52.4883 8.91591C52.067 8.54321 51.5889 8.25962 51.0542 8.06517C50.5194 7.85451 49.9198 7.74918 49.2555 7.74918C48.5425 7.74918 47.9024 7.89502 47.3352 8.1867C46.7842 8.46218 46.3467 8.8754 46.0226 9.42636C45.6985 9.97732 45.5365 10.6579 45.5365 11.4682C45.5365 12.1974 45.6985 12.8456 46.0226 13.4127C46.3467 13.9637 46.8086 14.4012 47.4081 14.7253C48.0077 15.0332 48.7126 15.1871 49.5228 15.1871C50.3979 15.1871 51.1757 15.0818 51.8563 14.8711C52.5369 14.6605 53.0879 14.3931 53.5092 14.069L53.6793 17.9581Z" fill="white"/>
<path d="M40.1497 4.24905V18.6874H36.1147V4.24905H40.1497Z" fill="white"/>
<path d="M34.6534 4.24905L34.3617 7.8465H28.6253V9.66953H33.2922V13.1697H28.6253V15.09H34.775V18.6874H24.5903V4.24905H34.6534Z" fill="white"/>
<path fill-rule="evenodd" clip-rule="evenodd" d="M11.1455 22.225C5.07036 22.225 0.145508 17.3001 0.145508 11.225V0.224976C4.28258 0.224976 7.88623 2.50884 9.76443 5.88455C7.20002 6.49681 5.2933 8.80341 5.29329 11.5553V11.8017C5.29329 14.8855 7.7932 17.3853 10.877 17.3853H11.1233L11.1232 11.5553C11.1232 14.7752 13.7334 17.3853 16.9533 17.3853L16.9533 11.5553C16.9533 8.34291 14.3551 5.73733 11.1455 5.72538L11.1455 0.224976H11.6103C17.4287 0.224976 22.1455 4.94175 22.1455 10.7602V11.225C22.1455 17.3001 17.2206 22.225 11.1455 22.225Z" fill="white"/>
</svg>
