<svg width="100" height="22" viewBox="0 0 100 22" fill="none" xmlns="http://www.w3.org/2000/svg">
<path d="M99.658 3.78683V18.2252H95.623V3.78683H99.658Z" fill="#181818"/>
<path d="M93.6839 3.78683V18.2252H89.6489V10.7387H89.5274C89.4626 11.0952 89.3734 11.4517 89.26 11.8082C89.1628 12.1647 89.025 12.5455 88.8468 12.9506L87.4856 16.1591H83.6937L82.3325 12.9506C82.1866 12.5779 82.057 12.2052 81.9436 11.8325C81.8301 11.4598 81.7329 11.0952 81.6519 10.7387H81.5303V18.2252H77.6655V3.78683H81.9679L84.7389 10.131C84.9009 10.4875 85.063 10.8926 85.225 11.3463C85.4033 11.7839 85.5329 12.1566 85.6139 12.4645H85.7355C85.8165 12.1566 85.938 11.7839 86.1001 11.3463C86.2783 10.8926 86.4485 10.4875 86.6105 10.131L89.3815 3.78683H93.6839Z" fill="#181818"/>
<path d="M70.1577 3.78683C71.5187 3.78687 72.6609 3.99744 73.5845 4.41867C74.5081 4.82378 75.2054 5.40708 75.6753 6.16867C76.1452 6.93029 76.3804 7.84623 76.3804 8.91574C76.3804 9.98505 76.1369 10.9085 75.6509 11.6862C75.1809 12.4479 74.4755 13.0311 73.5356 13.4362C72.612 13.8413 71.4699 14.0446 70.1089 14.0446H68.8931V18.2253H64.8589V3.78683H70.1577ZM68.8931 10.739H70.0845C70.6028 10.739 71.0241 10.6659 71.3481 10.5202C71.6884 10.3744 71.9318 10.1629 72.0776 9.88742C72.2396 9.61204 72.3208 9.28826 72.3208 8.91574C72.3208 8.52683 72.2397 8.20236 72.0776 7.94308C71.9318 7.66771 71.6884 7.45705 71.3481 7.31125C71.0241 7.16551 70.6028 7.0925 70.0845 7.0925H68.8931V10.739Z" fill="#181818"/>
<path d="M62.9232 3.78683V18.2252H58.8882V3.78683H62.9232Z" fill="#181818"/>
<path d="M53.8766 17.7391C53.3581 18.0631 52.718 18.3062 51.9564 18.4683C51.1947 18.6303 50.4007 18.7113 49.5743 18.7113C47.9214 18.7113 46.4954 18.3872 45.2962 17.7391C44.1133 17.0747 43.1977 16.1834 42.5495 15.0653C41.9176 13.9309 41.6016 12.6589 41.6016 11.2491C41.6016 9.80685 41.9257 8.52668 42.5738 7.40856C43.2382 6.29043 44.1376 5.40727 45.2719 4.75909C46.4063 4.1109 47.6945 3.7868 49.1367 3.7868C50.1576 3.7868 51.0651 3.89213 51.8591 4.1028C52.6694 4.31346 53.3824 4.62945 53.9982 5.05077L52.6856 8.69683C52.2643 8.32412 51.7862 8.04054 51.2515 7.84608C50.7167 7.63542 50.1171 7.53009 49.4527 7.53009C48.7397 7.53009 48.0996 7.67593 47.5325 7.96762C46.9815 8.2431 46.544 8.65632 46.2199 9.20728C45.8958 9.75824 45.7338 10.4388 45.7338 11.2491C45.7338 11.9783 45.8958 12.6265 46.2199 13.1936C46.544 13.7446 47.0058 14.1821 47.6054 14.5062C48.205 14.8141 48.9099 14.968 49.7201 14.968C50.5952 14.968 51.373 14.8627 52.0536 14.6521C52.7342 14.4414 53.2852 14.174 53.7065 13.8499L53.8766 17.7391Z" fill="#181818"/>
<path d="M40.347 4.02994V18.4683H36.312V4.02994H40.347Z" fill="#181818"/>
<path d="M34.8502 4.02994L34.5585 7.62738H28.8221V9.45041H33.489V12.9506H28.8221V14.8709H34.9718V18.4683H24.7871V4.02994H34.8502Z" fill="#181818"/>
<path fill-rule="evenodd" clip-rule="evenodd" d="M11.3423 22.0059C5.26715 22.0059 0.342285 17.081 0.342285 11.0059V0.00588989C4.47935 0.00588989 8.08299 2.28974 9.9612 5.66542C7.39669 6.2776 5.48987 8.58425 5.48987 11.3363V11.5826C5.48987 14.6664 7.98978 17.1663 11.0736 17.1663H11.3199L11.3198 11.3363C11.3198 14.5561 13.93 17.1663 17.1499 17.1663L17.1499 11.3362C17.1499 8.12389 14.5518 5.51835 11.3423 5.50629L11.3423 0.00588989H11.8071C17.6255 0.00588989 22.3423 4.72267 22.3423 10.5411V11.0059C22.3423 17.081 17.4174 22.0059 11.3423 22.0059Z" fill="#181818"/>
</svg>
